# xmcd
#
# Track frame offsets:
#        150
#        32155
#        56515
#        92004
#        129910
#        176355
#        202507
#        228070
#        258417
#        283485
#        316197
#
# Disc length: 4564 seconds
#
# Revision: 5
# Processed by: cddbd v1.5.1PL0 Copyright (c) Steve Scherf et al.
# Submitted via: ExactAudioCopy v0.95a4
#
DISCID=8811d20b
DTITLE=Various Artist - Pacific State Disc 1
DYEAR=1998
DGENRE=Electronic
TTITLE0=Tatsuya Oe - The Warming
TTITLE1=Ken Ishii - Dinasaur. R
TTITLE2=Boom Boom Satellites - Soul Screamer
TTITLE3=Takkyu Ishino - Bote
TTITLE4=Ken Inaoko - Silent Speaker
TTITLE5=Subvoice - Worker
TTITLE6=Quadra - Quadra Loops
TTITLE7=DJ Q'Hey - Synfunk
TTITLE8=Co-Fusion - Aqua Boogie
TTITLE9=Nobukazu Takemura - Cross
TTITLE10=Web - Creepy Crawley
EXTD=(CD1) YEAR: 1998
EXTT0=
EXTT1=
EXTT2=
EXTT3=
EXTT4=
EXTT5=
EXTT6=
EXTT7=
EXTT8=
EXTT9=
EXTT10=
PLAYORDER=
